<mxfile host="app.diagrams.net" modified="2021-06-04T03:58:00.506Z" agent="5.0 (Windows NT 10.0; WOW64) AppleWebKit/537.36 (KHTML, like Gecko) coc_coc_browser/95.0.150 Chrome/89.0.4389.150 Safari/537.36" etag="vfYu_ytVnIiTC3m0PzPN" version="14.7.3" type="github">
  <diagram id="Rk5YkfSThUEQqbxZMaHW" name="Page-1">
    <mxGraphModel dx="1064" dy="514" grid="1" gridSize="10" guides="1" tooltips="1" connect="1" arrows="1" fold="1" page="1" pageScale="1" pageWidth="827" pageHeight="1169" math="0" shadow="0">
      <root>
        <mxCell id="0" />
        <mxCell id="1" parent="0" />
        <mxCell id="315UrNdyhWm19qhBakBZ-19" style="edgeStyle=orthogonalEdgeStyle;rounded=0;orthogonalLoop=1;jettySize=auto;html=1;exitX=0;exitY=0.5;exitDx=0;exitDy=0;entryX=1;entryY=0.5;entryDx=0;entryDy=0;" parent="1" source="315UrNdyhWm19qhBakBZ-2" target="315UrNdyhWm19qhBakBZ-4" edge="1">
          <mxGeometry relative="1" as="geometry" />
        </mxCell>
        <mxCell id="315UrNdyhWm19qhBakBZ-20" value="" style="edgeStyle=orthogonalEdgeStyle;rounded=0;orthogonalLoop=1;jettySize=auto;html=1;exitX=0.5;exitY=1;exitDx=0;exitDy=0;" parent="1" source="315UrNdyhWm19qhBakBZ-2" target="315UrNdyhWm19qhBakBZ-3" edge="1">
          <mxGeometry relative="1" as="geometry">
            <Array as="points">
              <mxPoint x="429" y="600" />
              <mxPoint x="650" y="600" />
            </Array>
          </mxGeometry>
        </mxCell>
        <mxCell id="315UrNdyhWm19qhBakBZ-23" style="edgeStyle=orthogonalEdgeStyle;rounded=0;orthogonalLoop=1;jettySize=auto;html=1;exitX=0.5;exitY=1;exitDx=0;exitDy=0;entryX=0.5;entryY=0;entryDx=0;entryDy=0;" parent="1" source="315UrNdyhWm19qhBakBZ-2" target="315UrNdyhWm19qhBakBZ-17" edge="1">
          <mxGeometry relative="1" as="geometry" />
        </mxCell>
        <mxCell id="315UrNdyhWm19qhBakBZ-30" style="edgeStyle=orthogonalEdgeStyle;rounded=0;orthogonalLoop=1;jettySize=auto;html=1;entryX=0.5;entryY=1;entryDx=0;entryDy=0;" parent="1" source="315UrNdyhWm19qhBakBZ-2" target="315UrNdyhWm19qhBakBZ-14" edge="1">
          <mxGeometry relative="1" as="geometry">
            <mxPoint x="418" y="350" as="targetPoint" />
          </mxGeometry>
        </mxCell>
        <mxCell id="315UrNdyhWm19qhBakBZ-31" style="edgeStyle=orthogonalEdgeStyle;rounded=0;orthogonalLoop=1;jettySize=auto;html=1;exitX=0.5;exitY=0;exitDx=0;exitDy=0;entryX=0.5;entryY=1;entryDx=0;entryDy=0;" parent="1" source="315UrNdyhWm19qhBakBZ-2" target="315UrNdyhWm19qhBakBZ-7" edge="1">
          <mxGeometry relative="1" as="geometry">
            <Array as="points">
              <mxPoint x="429" y="410" />
              <mxPoint x="270" y="410" />
            </Array>
          </mxGeometry>
        </mxCell>
        <mxCell id="315UrNdyhWm19qhBakBZ-32" style="edgeStyle=orthogonalEdgeStyle;rounded=0;orthogonalLoop=1;jettySize=auto;html=1;exitX=0.5;exitY=0;exitDx=0;exitDy=0;entryX=0.5;entryY=1;entryDx=0;entryDy=0;" parent="1" source="315UrNdyhWm19qhBakBZ-2" target="315UrNdyhWm19qhBakBZ-11" edge="1">
          <mxGeometry relative="1" as="geometry">
            <Array as="points">
              <mxPoint x="429" y="410" />
              <mxPoint x="580" y="410" />
            </Array>
          </mxGeometry>
        </mxCell>
        <mxCell id="315UrNdyhWm19qhBakBZ-33" style="edgeStyle=orthogonalEdgeStyle;rounded=0;orthogonalLoop=1;jettySize=auto;html=1;exitX=0.5;exitY=0;exitDx=0;exitDy=0;entryX=0.583;entryY=1.025;entryDx=0;entryDy=0;entryPerimeter=0;" parent="1" source="315UrNdyhWm19qhBakBZ-2" target="315UrNdyhWm19qhBakBZ-15" edge="1">
          <mxGeometry relative="1" as="geometry">
            <Array as="points">
              <mxPoint x="429" y="410" />
              <mxPoint x="750" y="410" />
            </Array>
          </mxGeometry>
        </mxCell>
        <mxCell id="315UrNdyhWm19qhBakBZ-34" style="edgeStyle=orthogonalEdgeStyle;rounded=0;orthogonalLoop=1;jettySize=auto;html=1;exitX=0.5;exitY=0;exitDx=0;exitDy=0;entryX=0.5;entryY=1;entryDx=0;entryDy=0;" parent="1" source="315UrNdyhWm19qhBakBZ-2" target="315UrNdyhWm19qhBakBZ-12" edge="1">
          <mxGeometry relative="1" as="geometry">
            <Array as="points">
              <mxPoint x="429" y="410" />
              <mxPoint x="110" y="410" />
            </Array>
          </mxGeometry>
        </mxCell>
        <mxCell id="315UrNdyhWm19qhBakBZ-35" style="edgeStyle=orthogonalEdgeStyle;rounded=0;orthogonalLoop=1;jettySize=auto;html=1;exitX=0.5;exitY=0;exitDx=0;exitDy=0;entryX=0.454;entryY=1.013;entryDx=0;entryDy=0;entryPerimeter=0;" parent="1" source="315UrNdyhWm19qhBakBZ-2" target="315UrNdyhWm19qhBakBZ-26" edge="1">
          <mxGeometry relative="1" as="geometry">
            <Array as="points">
              <mxPoint x="429" y="410" />
              <mxPoint x="350" y="410" />
              <mxPoint x="350" y="200" />
              <mxPoint x="265" y="200" />
            </Array>
          </mxGeometry>
        </mxCell>
        <mxCell id="315UrNdyhWm19qhBakBZ-37" style="edgeStyle=orthogonalEdgeStyle;rounded=0;orthogonalLoop=1;jettySize=auto;html=1;exitX=0.5;exitY=0;exitDx=0;exitDy=0;entryX=0.5;entryY=1;entryDx=0;entryDy=0;" parent="1" source="315UrNdyhWm19qhBakBZ-2" target="315UrNdyhWm19qhBakBZ-8" edge="1">
          <mxGeometry relative="1" as="geometry">
            <mxPoint x="429" y="200" as="targetPoint" />
            <Array as="points">
              <mxPoint x="429" y="410" />
              <mxPoint x="350" y="410" />
              <mxPoint x="350" y="200" />
              <mxPoint x="424" y="200" />
            </Array>
          </mxGeometry>
        </mxCell>
        <mxCell id="315UrNdyhWm19qhBakBZ-38" style="edgeStyle=orthogonalEdgeStyle;rounded=0;orthogonalLoop=1;jettySize=auto;html=1;exitX=0.5;exitY=0;exitDx=0;exitDy=0;entryX=0.5;entryY=1;entryDx=0;entryDy=0;" parent="1" source="315UrNdyhWm19qhBakBZ-2" target="315UrNdyhWm19qhBakBZ-10" edge="1">
          <mxGeometry relative="1" as="geometry">
            <mxPoint x="580" y="200" as="targetPoint" />
            <Array as="points">
              <mxPoint x="429" y="410" />
              <mxPoint x="350" y="410" />
              <mxPoint x="350" y="200" />
              <mxPoint x="580" y="200" />
            </Array>
          </mxGeometry>
        </mxCell>
        <mxCell id="315UrNdyhWm19qhBakBZ-40" style="edgeStyle=orthogonalEdgeStyle;rounded=0;orthogonalLoop=1;jettySize=auto;html=1;exitX=0.5;exitY=0;exitDx=0;exitDy=0;entryX=0.5;entryY=1;entryDx=0;entryDy=0;" parent="1" source="315UrNdyhWm19qhBakBZ-2" target="315UrNdyhWm19qhBakBZ-9" edge="1">
          <mxGeometry relative="1" as="geometry">
            <mxPoint x="350" y="200" as="targetPoint" />
            <Array as="points">
              <mxPoint x="429" y="410" />
              <mxPoint x="350" y="410" />
              <mxPoint x="350" y="200" />
              <mxPoint x="740" y="200" />
            </Array>
          </mxGeometry>
        </mxCell>
        <mxCell id="315UrNdyhWm19qhBakBZ-2" value="&lt;font style=&quot;font-size: 14px&quot;&gt;Màn hình chính&lt;/font&gt;" style="shape=ext;double=1;rounded=1;whiteSpace=wrap;html=1;" parent="1" vertex="1">
          <mxGeometry x="368.5" y="480" width="120" height="80" as="geometry" />
        </mxCell>
        <mxCell id="315UrNdyhWm19qhBakBZ-3" value="&lt;font style=&quot;font-size: 14px&quot;&gt;Màn hình Thêm nhân viên&lt;/font&gt;" style="shape=ext;double=1;rounded=0;whiteSpace=wrap;html=1;" parent="1" vertex="1">
          <mxGeometry x="590" y="640" width="120" height="80" as="geometry" />
        </mxCell>
        <mxCell id="315UrNdyhWm19qhBakBZ-4" value="&lt;font style=&quot;font-size: 14px&quot;&gt;Màn hình Thông tin cá nhân&lt;/font&gt;" style="shape=ext;double=1;rounded=0;whiteSpace=wrap;html=1;" parent="1" vertex="1">
          <mxGeometry x="94" y="480" width="120" height="80" as="geometry" />
        </mxCell>
        <mxCell id="315UrNdyhWm19qhBakBZ-18" style="edgeStyle=orthogonalEdgeStyle;rounded=0;orthogonalLoop=1;jettySize=auto;html=1;exitX=0;exitY=0.5;exitDx=0;exitDy=0;entryX=1;entryY=0.5;entryDx=0;entryDy=0;" parent="1" source="315UrNdyhWm19qhBakBZ-5" target="315UrNdyhWm19qhBakBZ-2" edge="1">
          <mxGeometry relative="1" as="geometry" />
        </mxCell>
        <mxCell id="315UrNdyhWm19qhBakBZ-5" value="&lt;font style=&quot;font-size: 14px&quot;&gt;Màn hình Đăng nhập&lt;/font&gt;" style="shape=ext;double=1;rounded=0;whiteSpace=wrap;html=1;" parent="1" vertex="1">
          <mxGeometry x="650" y="480" width="120" height="80" as="geometry" />
        </mxCell>
        <mxCell id="315UrNdyhWm19qhBakBZ-7" value="&lt;font style=&quot;font-size: 14px&quot;&gt;Màn hình Quản lý khách hàng&lt;/font&gt;" style="shape=ext;double=1;rounded=0;whiteSpace=wrap;html=1;" parent="1" vertex="1">
          <mxGeometry x="210" y="270" width="120" height="80" as="geometry" />
        </mxCell>
        <mxCell id="315UrNdyhWm19qhBakBZ-8" value="&lt;font style=&quot;font-size: 14px&quot;&gt;Màn hình Quản lý loại khách&lt;/font&gt;" style="shape=ext;double=1;rounded=0;whiteSpace=wrap;html=1;" parent="1" vertex="1">
          <mxGeometry x="358.5" y="80" width="130" height="80" as="geometry" />
        </mxCell>
        <mxCell id="315UrNdyhWm19qhBakBZ-9" value="&lt;font style=&quot;font-size: 14px&quot;&gt;Màn hình Quản lý&amp;nbsp;&amp;nbsp;phòng&lt;/font&gt;" style="shape=ext;double=1;rounded=0;whiteSpace=wrap;html=1;" parent="1" vertex="1">
          <mxGeometry x="680" y="80" width="120" height="80" as="geometry" />
        </mxCell>
        <mxCell id="315UrNdyhWm19qhBakBZ-10" value="&lt;font style=&quot;font-size: 14px&quot;&gt;Màn hình Quản lý loại phòng&lt;/font&gt;" style="shape=ext;double=1;rounded=0;whiteSpace=wrap;html=1;" parent="1" vertex="1">
          <mxGeometry x="520" y="80" width="120" height="80" as="geometry" />
        </mxCell>
        <mxCell id="315UrNdyhWm19qhBakBZ-11" value="&lt;font style=&quot;font-size: 14px&quot;&gt;Màn hình Đặt phòng&lt;/font&gt;" style="shape=ext;double=1;rounded=0;whiteSpace=wrap;html=1;" parent="1" vertex="1">
          <mxGeometry x="520" y="270" width="120" height="80" as="geometry" />
        </mxCell>
        <mxCell id="315UrNdyhWm19qhBakBZ-28" style="edgeStyle=orthogonalEdgeStyle;rounded=0;orthogonalLoop=1;jettySize=auto;html=1;entryX=0.5;entryY=1;entryDx=0;entryDy=0;" parent="1" source="315UrNdyhWm19qhBakBZ-12" target="315UrNdyhWm19qhBakBZ-13" edge="1">
          <mxGeometry relative="1" as="geometry" />
        </mxCell>
        <mxCell id="315UrNdyhWm19qhBakBZ-12" value="&lt;font style=&quot;font-size: 14px&quot;&gt;Màn hình Quán lý hóa đơn&lt;/font&gt;" style="shape=ext;double=1;rounded=0;whiteSpace=wrap;html=1;" parent="1" vertex="1">
          <mxGeometry x="50" y="270" width="120" height="80" as="geometry" />
        </mxCell>
        <mxCell id="315UrNdyhWm19qhBakBZ-13" value="&lt;font style=&quot;font-size: 14px&quot;&gt;Màn hình Xuất hóa đơn&lt;/font&gt;" style="shape=ext;double=1;rounded=0;whiteSpace=wrap;html=1;" parent="1" vertex="1">
          <mxGeometry x="50" y="80" width="120" height="80" as="geometry" />
        </mxCell>
        <mxCell id="315UrNdyhWm19qhBakBZ-14" value="&lt;font style=&quot;font-size: 14px&quot;&gt;Màn hình báo cáo&lt;/font&gt;" style="shape=ext;double=1;rounded=0;whiteSpace=wrap;html=1;" parent="1" vertex="1">
          <mxGeometry x="368.5" y="270" width="120" height="80" as="geometry" />
        </mxCell>
        <mxCell id="315UrNdyhWm19qhBakBZ-15" value="&lt;font style=&quot;font-size: 14px&quot;&gt;Màn hình cập nhật tham số&lt;br&gt;&lt;/font&gt;" style="shape=ext;double=1;rounded=0;whiteSpace=wrap;html=1;" parent="1" vertex="1">
          <mxGeometry x="680" y="270" width="120" height="80" as="geometry" />
        </mxCell>
        <mxCell id="315UrNdyhWm19qhBakBZ-17" value="&lt;font style=&quot;font-size: 14px&quot;&gt;Màn hình Quản lý nhân viên&lt;br&gt;&lt;/font&gt;" style="shape=ext;double=1;rounded=0;whiteSpace=wrap;html=1;" parent="1" vertex="1">
          <mxGeometry x="100" y="640" width="120" height="80" as="geometry" />
        </mxCell>
        <mxCell id="315UrNdyhWm19qhBakBZ-29" style="edgeStyle=orthogonalEdgeStyle;rounded=0;orthogonalLoop=1;jettySize=auto;html=1;entryX=1;entryY=0.5;entryDx=0;entryDy=0;" parent="1" source="315UrNdyhWm19qhBakBZ-26" target="315UrNdyhWm19qhBakBZ-13" edge="1">
          <mxGeometry relative="1" as="geometry" />
        </mxCell>
        <mxCell id="315UrNdyhWm19qhBakBZ-26" value="&lt;font style=&quot;font-size: 14px&quot;&gt;Màn hình Quản lý phiếu thuê&lt;/font&gt;" style="shape=ext;double=1;rounded=0;whiteSpace=wrap;html=1;" parent="1" vertex="1">
          <mxGeometry x="211" y="80" width="119" height="80" as="geometry" />
        </mxCell>
      </root>
    </mxGraphModel>
  </diagram>
</mxfile>
